<?xml version="1.0" encoding="UTF-8" standalone="no"?>
<svg
   xmlns:dc="http://purl.org/dc/elements/1.1/"
   xmlns:cc="http://creativecommons.org/ns#"
   xmlns:rdf="http://www.w3.org/1999/02/22-rdf-syntax-ns#"
   xmlns:svg="http://www.w3.org/2000/svg"
   xmlns="http://www.w3.org/2000/svg"
   xmlns:sodipodi="http://sodipodi.sourceforge.net/DTD/sodipodi-0.dtd"
   xmlns:inkscape="http://www.inkscape.org/namespaces/inkscape"
   width="1024"
   height="1024"
   viewBox="0 0 1024 1024"
   fill="none"
   version="1.1"
   id="svg58"
   sodipodi:docname="github.svg"
   inkscape:version="1.0.2 (e86c870879, 2021-01-15)">
  <metadata
     id="metadata64">
    <rdf:RDF>
      <cc:Work
         rdf:about="">
        <dc:format>image/svg+xml</dc:format>
        <dc:type
           rdf:resource="http://purl.org/dc/dcmitype/StillImage" />
        <dc:title></dc:title>
      </cc:Work>
    </rdf:RDF>
  </metadata>
  <defs
     id="defs62" />
  <sodipodi:namedview
     pagecolor="#ffffff"
     bordercolor="#666666"
     borderopacity="1"
     objecttolerance="10"
     gridtolerance="10"
     guidetolerance="10"
     inkscape:pageopacity="0"
     inkscape:pageshadow="2"
     inkscape:window-width="2560"
     inkscape:window-height="1355"
     id="namedview60"
     showgrid="false"
     inkscape:zoom="1.1035156"
     inkscape:cx="512"
     inkscape:cy="507.46903"
     inkscape:window-x="1920"
     inkscape:window-y="44"
     inkscape:window-maximized="1"
     inkscape:current-layer="svg58" />
  <path
     fill-rule="evenodd"
     clip-rule="evenodd"
     d="M8 0C3.58 0 0 3.58 0 8C0 11.54 2.29 14.53 5.47 15.59C5.87 15.66 6.02 15.42 6.02 15.21C6.02 15.02 6.01 14.39 6.01 13.72C4 14.09 3.48 13.23 3.32 12.78C3.23 12.55 2.84 11.84 2.5 11.65C2.22 11.5 1.82 11.13 2.49 11.12C3.12 11.11 3.57 11.7 3.72 11.94C4.44 13.15 5.59 12.81 6.05 12.6C6.12 12.08 6.33 11.73 6.56 11.53C4.78 11.33 2.92 10.64 2.92 7.58C2.92 6.71 3.23 5.99 3.74 5.43C3.66 5.23 3.38 4.41 3.82 3.31C3.82 3.31 4.49 3.1 6.02 4.13C6.66 3.95 7.34 3.86 8.02 3.86C8.7 3.86 9.38 3.95 10.02 4.13C11.55 3.09 12.22 3.31 12.22 3.31C12.66 4.41 12.38 5.23 12.3 5.43C12.81 5.99 13.12 6.7 13.12 7.58C13.12 10.65 11.25 11.33 9.47 11.53C9.76 11.78 10.01 12.26 10.01 13.01C10.01 14.08 10 14.94 10 15.21C10 15.42 10.15 15.67 10.55 15.59C13.71 14.53 16 11.53 16 8C16 3.58 12.42 0 8 0Z"
     transform="scale(64)"
     fill="#1B1F23"
     id="path56" />
  <path
     style="fill:#37c8ab;stroke-width:0.906195"
     d="m 660.61593,997.71428 c -8.34594,-1.72521 -14.20135,-6.12642 -17.81004,-13.38685 l -2.12624,-4.27787 0.32853,-77.02655 c 0.23202,-54.39963 0.0165,-80.22094 -0.73367,-87.90089 -2.86498,-29.33064 -11.66333,-52.73604 -26.33698,-70.0617 -3.08744,-3.64544 -5.46979,-6.73425 -5.29411,-6.86403 0.17567,-0.12977 5.72343,-0.91985 12.32834,-1.75573 76.75331,-9.71354 135.1483,-37.53233 169.65153,-80.8203 12.74009,-15.98379 24.76118,-37.59295 32.22396,-57.92591 4.1688,-11.35822 9.66998,-32.91907 12.15373,-47.63427 4.86751,-28.8379 6.32027,-70.63415 3.26004,-93.79115 -4.97486,-37.64492 -20.49547,-73.24555 -44.45705,-101.97398 l -5.77139,-6.91954 2.28148,-7.17448 c 11.51379,-36.20689 9.81524,-79.35597 -4.74204,-120.46413 -3.30977,-9.34643 -2.72864,-8.90818 -12.37166,-9.32993 -29.55428,-1.2926 -72.08775,14.79624 -119.69167,45.27493 l -12.5444,8.03162 -8.29808,-2.2246 c -72.94908,-19.55665 -165.97536,-19.53825 -238.80963,0.0472 l -8.49385,2.28404 -6.45836,-4.29644 c -34.5844,-23.00738 -70.4184,-39.71204 -98.87734,-46.09342 -11.76228,-2.63746 -28.00798,-3.90143 -33.08898,-2.57444 -3.13707,0.81931 -3.21833,0.96748 -7.44665,13.5782 -7.35334,21.93085 -10.66975,42.05635 -10.65211,64.64204 0.0149,19.105 2.96972,38.54646 8.05935,53.02737 l 1.81276,5.15764 -5.2317,6.21525 c -24.97451,29.66971 -39.48346,63.09986 -45.59609,105.05814 -1.65631,11.36931 -1.33856,50.63413 0.55369,68.4177 11.88266,111.67462 66.18015,175.16271 172.0867,201.21478 12.453,3.06333 39.13792,7.86798 50.43529,9.08094 3.23965,0.34783 6.15195,0.77956 6.47178,0.95942 0.31983,0.17984 -1.03417,2.06331 -3.00889,4.18548 -5.80673,6.24032 -11.38021,14.45763 -15.62036,23.03002 -5.39114,10.89936 -7.75723,18.64517 -11.90434,38.97104 -0.3051,1.49536 -2.13433,2.62094 -7.73531,4.75975 -19.74594,7.54025 -36.52071,10.53786 -54.74447,9.78268 -34.82004,-1.44292 -61.09137,-17.70693 -83.8124,-51.88643 -8.72553,-13.1259 -16.9707,-23.54741 -23.72023,-29.98127 -10.82058,-10.31449 -25.22581,-19.15125 -37.45852,-22.9786 -8.05337,-2.51972 -23.45051,-3.43045 -31.43597,-1.85941 -10.2994,2.02629 -13.3336,4.90301 -12.10107,11.47299 0.87675,4.67349 11.19939,14.83993 21.33527,21.01243 4.23646,2.5799 9.79951,6.63137 12.36233,9.00328 14.21072,13.15207 32.43333,41.18354 43.18025,66.4233 5.91682,13.89596 11.56462,22.79483 20.02545,31.55275 7.90165,8.17912 14.81586,13.21107 25.47268,18.53824 27.62625,13.80991 66.74127,17.45211 112.6882,10.49296 6.65532,-1.00802 12.36434,-1.56924 12.68672,-1.24716 0.32237,0.32208 0.58614,23.28602 0.58614,51.03094 0,50.1383 -0.012,50.46743 -1.97755,54.07019 -2.93337,5.37673 -6.34403,8.57759 -11.80265,11.0766 -4.32087,1.97822 -5.84144,2.19489 -13.22187,1.88407 -7.42068,-0.31246 -9.73735,-0.88128 -21.02625,-5.16295 C 240.22097,955.97568 161.45286,897.25266 102.12234,817.87057 9.2884004,693.66209 -22.098393,533.68471 16.865681,383.32035 45.757593,271.82499 112.50014,172.5734 205.77124,102.40244 288.29491,40.317132 389.96132,4.436613 492.96991,1.0431261 c 49.65161,-1.63570935 95.95085,3.064709 141.59326,14.3749149 76.7822,19.026659 144.98415,53.783742 207.2917,105.640009 15.14294,12.60291 47.04915,44.46063 60.27248,60.18089 27.86873,33.13106 48.31375,64.27622 67.81469,103.30619 28.38782,56.81667 44.62376,113.68321 51.48676,180.33275 2.1692,21.06645 2.1749,73.38815 0.01,94.24424 -7.2138,69.50413 -24.2559,127.59961 -54.89371,187.12921 -25.17037,48.90658 -53.94831,88.07162 -94.24546,128.26241 -27.19958,27.12782 -48.70942,44.77719 -78.92644,64.76104 -33.48995,22.1484 -72.80726,41.89502 -108.29027,54.38736 -11.62516,4.09283 -18.64577,5.25548 -24.46725,4.05214 z"
     id="path70" />
</svg>
